<?xml version="1.0" encoding="iso-8859-1"?><svg version="1.1" id="Capa_1" xmlns="http://www.w3.org/2000/svg" xmlns:xlink="http://www.w3.org/1999/xlink" x="0px" y="0px" viewBox="0 0 512.004 512.004" style="enable-background:new 0 0 512.004 512.004;" xml:space="preserve"> <g> <g> <g> <path d="M479.743,202.611h-34.157c-2.426,0-4.552-1.593-5.288-3.963c-3.464-11.137-7.983-22.033-13.433-32.385 c-1.16-2.204-0.785-4.839,0.932-6.556l24.166-24.165c12.576-12.577,12.576-33.041,0-45.619l-29.887-29.886 c-6.093-6.092-14.193-9.447-22.81-9.447s-16.717,3.355-22.81,9.447l-24.165,24.165c-1.717,1.719-4.352,2.092-6.556,0.932 c-10.353-5.449-21.249-9.968-32.385-13.431c-2.37-0.737-3.962-2.863-3.962-5.29V32.259c0.002-17.787-14.469-32.258-32.255-32.258 h-42.266c-17.787,0-32.257,14.471-32.257,32.258v34.155c0,2.427-1.592,4.553-3.962,5.29 c-11.138,3.464-22.034,7.983-32.385,13.432c-2.203,1.16-4.838,0.786-6.556-0.933l-24.164-24.165 c-12.578-12.576-33.042-12.576-45.619,0L60.038,89.925c-12.577,12.577-12.577,33.041,0,45.619l24.164,24.163 c1.718,1.718,2.093,4.352,0.933,6.557c-5.448,10.351-9.967,21.246-13.432,32.385c-0.737,2.37-2.863,3.963-5.289,3.963H32.257 C14.471,202.611,0,217.082,0,234.868v42.266c0,9.489,4.152,18.456,11.392,24.601c3.158,2.682,7.892,2.293,10.571-0.864 c2.681-3.158,2.293-7.892-0.864-10.571C17.223,287.009,15,282.211,15,277.134v-42.266c0-9.516,7.742-17.257,17.257-17.257h34.156 c9.032,0,16.914-5.83,19.612-14.508c3.193-10.267,7.359-20.31,12.382-29.852c4.239-8.053,2.793-17.758-3.599-24.15 l-24.165-24.163c-6.729-6.729-6.729-17.678,0-24.406l29.886-29.886c6.729-6.729,17.678-6.729,24.406,0L149.1,94.811 c6.391,6.39,16.095,7.837,24.149,3.599c9.543-5.023,19.587-9.189,29.853-12.382c8.678-2.699,14.508-10.581,14.508-19.613V32.259 c0-9.516,7.742-17.258,17.257-17.258h42.266c9.516,0,17.257,7.742,17.257,17.258v34.155c0,9.032,5.83,16.914,14.507,19.613 c10.264,3.191,20.309,7.357,29.852,12.381c8.055,4.239,17.757,2.794,24.15-3.598l24.165-24.165 c6.728-6.729,17.675-6.729,24.405,0l29.886,29.885c6.729,6.729,6.729,17.678,0.001,24.406l-24.166,24.165 c-6.391,6.392-7.837,16.097-3.599,24.149c5.023,9.544,9.19,19.588,12.382,29.854c2.699,8.678,10.58,14.508,19.612,14.508h34.157 c9.516,0,17.257,7.741,17.257,17.257v42.266c0,9.516-7.741,17.257-17.257,17.257h-34.157c-9.032,0-16.913,5.83-19.612,14.508 c-3.192,10.266-7.358,20.31-12.382,29.854c-4.238,8.053-2.792,17.758,3.599,24.149l24.165,24.163 c6.729,6.729,6.729,17.678,0.001,24.406l-29.888,29.886c-6.729,6.729-17.676,6.729-24.404,0l-24.165-24.165 c-6.393-6.391-16.096-7.837-24.149-3.598c-9.545,5.023-19.59,9.189-29.853,12.382c-8.677,2.698-14.507,10.58-14.507,19.612 v34.155c0,9.516-7.741,17.258-17.257,17.258h-42.266c-9.516,0-17.257-7.742-17.257-17.258v-34.155 c0-9.032-5.83-16.914-14.507-19.612c-10.266-3.193-20.31-7.359-29.853-12.383c-8.053-4.238-17.757-2.791-24.149,3.599 l-24.165,24.165c-6.728,6.729-17.677,6.73-24.406,0l-29.886-29.885c-6.729-6.729-6.729-17.678,0-24.406l24.165-24.165 c6.391-6.392,7.837-16.097,3.599-24.148c-5.023-9.543-9.189-19.587-12.382-29.854c-2.698-8.678-10.58-14.508-19.612-14.508 h-6.949c-4.142,0-7.5,3.358-7.5,7.5c0,4.143,3.358,7.5,7.5,7.5h6.949c2.426,0,4.552,1.593,5.289,3.963 c3.465,11.139,7.984,22.034,13.432,32.386c1.16,2.203,0.785,4.838-0.932,6.555l-24.164,24.165 c-12.577,12.577-12.577,33.041,0,45.619l29.886,29.886c12.578,12.576,33.042,12.576,45.619,0l24.164-24.165 c1.717-1.718,4.353-2.093,6.556-0.933c10.352,5.448,21.247,9.968,32.386,13.433c2.37,0.736,3.962,2.862,3.962,5.289v34.155 c0,17.787,14.471,32.258,32.257,32.258h42.266c17.786,0,32.257-14.471,32.257-32.258V445.59c0-2.427,1.592-4.553,3.962-5.289 c11.136-3.464,22.031-7.983,32.386-13.432c2.202-1.158,4.837-0.787,6.555,0.932l24.165,24.165 c6.093,6.092,14.193,9.447,22.81,9.447s16.717-3.355,22.809-9.447l29.888-29.887c12.576-12.577,12.576-33.041-0.001-45.619 l-24.164-24.164c-1.718-1.717-2.093-4.352-0.933-6.556c5.449-10.352,9.969-21.248,13.433-32.385 c0.736-2.37,2.862-3.963,5.288-3.963h34.157c17.786,0,32.257-14.471,32.257-32.257v-42.266 C512,217.082,497.529,202.611,479.743,202.611z"/> <path d="M240.148,198.934c-6.943-3.471-15.03-3.109-21.633,0.974c-6.603,4.08-10.545,11.15-10.545,18.913v71.515 c0,7.763,3.942,14.833,10.545,18.913c3.594,2.222,7.627,3.342,11.676,3.342c3.391,0,6.793-0.786,9.957-2.368l71.516-35.757 c7.581-3.791,12.29-11.412,12.29-19.888c0-8.476-4.71-16.096-12.29-19.886L240.148,198.934z M304.955,261.049l-71.515,35.757 c-3.257,1.628-6.007,0.32-7.039-0.316c-1.032-0.638-3.431-2.514-3.431-6.154v-71.515c0-3.641,2.399-5.517,3.431-6.153 c0.666-0.412,2.048-1.102,3.82-1.102c0.973,0,2.064,0.208,3.218,0.785l71.515,35.758c2.504,1.252,3.999,3.671,3.999,6.47 C308.954,257.377,307.459,259.797,304.955,261.049z"/> <path d="M346.23,202.334c2.123,3.559,6.725,4.719,10.283,2.602c3.558-2.121,4.723-6.725,2.602-10.283 c-10.453-17.533-25.308-32.219-42.958-42.467c-18.198-10.566-39-16.151-60.157-16.151c-66.15,0-119.967,53.816-119.967,119.967 S189.85,375.968,256,375.968s119.967-53.816,119.967-119.967c0-8.298-0.853-16.588-2.534-24.639 c-0.847-4.055-4.818-6.649-8.875-5.809c-4.055,0.848-6.655,4.82-5.809,8.875c1.472,7.045,2.218,14.303,2.218,21.572 c0,57.879-47.088,104.967-104.967,104.967c-57.879,0-104.967-47.087-104.967-104.966c0-57.879,47.088-104.967,104.967-104.967 C292.792,151.034,327.366,170.691,346.23,202.334z"/> </g> </g> </g> <g> </g> <g> </g> <g> </g> <g> </g> <g> </g> <g> </g> <g> </g> <g> </g> <g> </g> <g> </g> <g> </g> <g> </g> <g> </g> <g> </g> <g> </g> </svg>